<?xml version="1.0" encoding="UTF-8" standalone="no"?>
<!DOCTYPE svg PUBLIC "-//W3C//DTD SVG 1.1//EN"
 "http://www.w3.org/Graphics/SVG/1.1/DTD/svg11.dtd">
<!-- Generated by graphviz version 2.40.1 (0)
 -->
<!-- Title: %3 Pages: 1 -->
<svg width="1148pt" height="548pt"
 viewBox="0.00 0.00 1147.51 548.00" xmlns="http://www.w3.org/2000/svg" xmlns:xlink="http://www.w3.org/1999/xlink">
<g id="graph0" class="graph" transform="scale(1 1) rotate(0) translate(4 544)">
<title>%3</title>
<polygon fill="#ffffff" stroke="transparent" points="-4,4 -4,-544 1143.5108,-544 1143.5108,4 -4,4"/>
<!-- [root] aws_eip.elastic_ip (expand) -->
<g id="node1" class="node">
<title>[root] aws_eip.elastic_ip (expand)</title>
<polygon fill="none" stroke="#000000" points="186.5108,-108 71.5108,-108 71.5108,-72 186.5108,-72 186.5108,-108"/>
<text text-anchor="middle" x="129.0108" y="-86.3" font-family="Times,serif" font-size="14.00" fill="#000000">aws_eip.elastic_ip</text>
</g>
<!-- [root] provider[&quot;registry.terraform.io/hashicorp/aws&quot;] -->
<g id="node12" class="node">
<title>[root] provider[&quot;registry.terraform.io/hashicorp/aws&quot;]</title>
<polygon fill="none" stroke="#000000" points="250.0108,-36 -.0108,-18 250.0108,0 500.0323,-18 250.0108,-36"/>
<text text-anchor="middle" x="250.0108" y="-14.3" font-family="Times,serif" font-size="14.00" fill="#000000">provider[&quot;registry.terraform.io/hashicorp/aws&quot;]</text>
</g>
<!-- [root] aws_eip.elastic_ip (expand)&#45;&gt;[root] provider[&quot;registry.terraform.io/hashicorp/aws&quot;] -->
<g id="edge1" class="edge">
<title>[root] aws_eip.elastic_ip (expand)&#45;&gt;[root] provider[&quot;registry.terraform.io/hashicorp/aws&quot;]</title>
<path fill="none" stroke="#000000" d="M159.5442,-71.8314C176.118,-61.9692 196.7059,-49.7186 214.0527,-39.3965"/>
<polygon fill="#000000" stroke="#000000" points="215.9861,-42.3189 222.79,-34.1975 212.4066,-36.3033 215.9861,-42.3189"/>
</g>
<!-- [root] aws_internet_gateway.VPC&#45;A&#45;IGW (expand) -->
<g id="node2" class="node">
<title>[root] aws_internet_gateway.VPC&#45;A&#45;IGW (expand)</title>
<polygon fill="none" stroke="#000000" points="1068.5108,-180 859.5108,-180 859.5108,-144 1068.5108,-144 1068.5108,-180"/>
<text text-anchor="middle" x="964.0108" y="-158.3" font-family="Times,serif" font-size="14.00" fill="#000000">aws_internet_gateway.VPC&#45;A&#45;IGW</text>
</g>
<!-- [root] aws_vpc.VPC&#45;A (expand) -->
<g id="node11" class="node">
<title>[root] aws_vpc.VPC&#45;A (expand)</title>
<polygon fill="none" stroke="#000000" points="738.0108,-108 632.0108,-108 632.0108,-72 738.0108,-72 738.0108,-108"/>
<text text-anchor="middle" x="685.0108" y="-86.3" font-family="Times,serif" font-size="14.00" fill="#000000">aws_vpc.VPC&#45;A</text>
</g>
<!-- [root] aws_internet_gateway.VPC&#45;A&#45;IGW (expand)&#45;&gt;[root] aws_vpc.VPC&#45;A (expand) -->
<g id="edge2" class="edge">
<title>[root] aws_internet_gateway.VPC&#45;A&#45;IGW (expand)&#45;&gt;[root] aws_vpc.VPC&#45;A (expand)</title>
<path fill="none" stroke="#000000" d="M893.9674,-143.9243C849.1917,-132.3693 791.5987,-117.5066 748.2197,-106.312"/>
<polygon fill="#000000" stroke="#000000" points="748.9116,-102.8759 738.3543,-103.7661 747.1624,-109.6539 748.9116,-102.8759"/>
</g>
<!-- [root] aws_nat_gateway.VPC&#45;A&#45;NAT&#45;GW (expand) -->
<g id="node3" class="node">
<title>[root] aws_nat_gateway.VPC&#45;A&#45;NAT&#45;GW (expand)</title>
<polygon fill="none" stroke="#000000" points="398.5108,-252 189.5108,-252 189.5108,-216 398.5108,-216 398.5108,-252"/>
<text text-anchor="middle" x="294.0108" y="-230.3" font-family="Times,serif" font-size="14.00" fill="#000000">aws_nat_gateway.VPC&#45;A&#45;NAT&#45;GW</text>
</g>
<!-- [root] aws_nat_gateway.VPC&#45;A&#45;NAT&#45;GW (expand)&#45;&gt;[root] aws_eip.elastic_ip (expand) -->
<g id="edge3" class="edge">
<title>[root] aws_nat_gateway.VPC&#45;A&#45;NAT&#45;GW (expand)&#45;&gt;[root] aws_eip.elastic_ip (expand)</title>
<path fill="none" stroke="#000000" d="M253.3669,-215.7734C235.3161,-206.5556 214.4779,-194.2848 198.0108,-180 176.9545,-161.7343 158.0843,-136.1451 145.4223,-116.9195"/>
<polygon fill="#000000" stroke="#000000" points="148.2432,-114.8351 139.8896,-108.3183 142.356,-118.6221 148.2432,-114.8351"/>
</g>
<!-- [root] aws_subnet.Private&#45;Subnet&#45;A (expand) -->
<g id="node9" class="node">
<title>[root] aws_subnet.Private&#45;Subnet&#45;A (expand)</title>
<polygon fill="none" stroke="#000000" points="381.0108,-180 207.0108,-180 207.0108,-144 381.0108,-144 381.0108,-180"/>
<text text-anchor="middle" x="294.0108" y="-158.3" font-family="Times,serif" font-size="14.00" fill="#000000">aws_subnet.Private&#45;Subnet&#45;A</text>
</g>
<!-- [root] aws_nat_gateway.VPC&#45;A&#45;NAT&#45;GW (expand)&#45;&gt;[root] aws_subnet.Private&#45;Subnet&#45;A (expand) -->
<g id="edge4" class="edge">
<title>[root] aws_nat_gateway.VPC&#45;A&#45;NAT&#45;GW (expand)&#45;&gt;[root] aws_subnet.Private&#45;Subnet&#45;A (expand)</title>
<path fill="none" stroke="#000000" d="M294.0108,-215.8314C294.0108,-208.131 294.0108,-198.9743 294.0108,-190.4166"/>
<polygon fill="#000000" stroke="#000000" points="297.5109,-190.4132 294.0108,-180.4133 290.5109,-190.4133 297.5109,-190.4132"/>
</g>
<!-- [root] aws_route_table.Private&#45;RT (expand) -->
<g id="node4" class="node">
<title>[root] aws_route_table.Private&#45;RT (expand)</title>
<polygon fill="none" stroke="#000000" points="565.5108,-324 400.5108,-324 400.5108,-288 565.5108,-288 565.5108,-324"/>
<text text-anchor="middle" x="483.0108" y="-302.3" font-family="Times,serif" font-size="14.00" fill="#000000">aws_route_table.Private&#45;RT</text>
</g>
<!-- [root] aws_route_table.Private&#45;RT (expand)&#45;&gt;[root] aws_nat_gateway.VPC&#45;A&#45;NAT&#45;GW (expand) -->
<g id="edge5" class="edge">
<title>[root] aws_route_table.Private&#45;RT (expand)&#45;&gt;[root] aws_nat_gateway.VPC&#45;A&#45;NAT&#45;GW (expand)</title>
<path fill="none" stroke="#000000" d="M435.3181,-287.8314C409.7034,-278.0734 377.9505,-265.977 351.0368,-255.7242"/>
<polygon fill="#000000" stroke="#000000" points="351.9514,-252.3273 341.3605,-252.038 349.4594,-258.8687 351.9514,-252.3273"/>
</g>
<!-- [root] aws_route_table.Public&#45;RT (expand) -->
<g id="node5" class="node">
<title>[root] aws_route_table.Public&#45;RT (expand)</title>
<polygon fill="none" stroke="#000000" points="958.5108,-252 795.5108,-252 795.5108,-216 958.5108,-216 958.5108,-252"/>
<text text-anchor="middle" x="877.0108" y="-230.3" font-family="Times,serif" font-size="14.00" fill="#000000">aws_route_table.Public&#45;RT</text>
</g>
<!-- [root] aws_route_table.Public&#45;RT (expand)&#45;&gt;[root] aws_internet_gateway.VPC&#45;A&#45;IGW (expand) -->
<g id="edge6" class="edge">
<title>[root] aws_route_table.Public&#45;RT (expand)&#45;&gt;[root] aws_internet_gateway.VPC&#45;A&#45;IGW (expand)</title>
<path fill="none" stroke="#000000" d="M898.9645,-215.8314C909.6802,-206.9632 922.7296,-196.1637 934.3198,-186.5718"/>
<polygon fill="#000000" stroke="#000000" points="936.5916,-189.2349 942.064,-180.1628 932.1286,-183.8422 936.5916,-189.2349"/>
</g>
<!-- [root] aws_route_table_association.private (expand) -->
<g id="node6" class="node">
<title>[root] aws_route_table_association.private (expand)</title>
<polygon fill="none" stroke="#000000" points="650.0108,-396 440.0108,-396 440.0108,-360 650.0108,-360 650.0108,-396"/>
<text text-anchor="middle" x="545.0108" y="-374.3" font-family="Times,serif" font-size="14.00" fill="#000000">aws_route_table_association.private</text>
</g>
<!-- [root] aws_route_table_association.private (expand)&#45;&gt;[root] aws_route_table.Private&#45;RT (expand) -->
<g id="edge7" class="edge">
<title>[root] aws_route_table_association.private (expand)&#45;&gt;[root] aws_route_table.Private&#45;RT (expand)</title>
<path fill="none" stroke="#000000" d="M529.3656,-359.8314C522.1517,-351.454 513.4538,-341.3531 505.5503,-332.1749"/>
<polygon fill="#000000" stroke="#000000" points="508.0441,-329.7071 498.8666,-324.4133 502.7397,-334.2748 508.0441,-329.7071"/>
</g>
<!-- [root] aws_route_table_association.public (expand) -->
<g id="node7" class="node">
<title>[root] aws_route_table_association.public (expand)</title>
<polygon fill="none" stroke="#000000" points="844.0108,-324 636.0108,-324 636.0108,-288 844.0108,-288 844.0108,-324"/>
<text text-anchor="middle" x="740.0108" y="-302.3" font-family="Times,serif" font-size="14.00" fill="#000000">aws_route_table_association.public</text>
</g>
<!-- [root] aws_route_table_association.public (expand)&#45;&gt;[root] aws_route_table.Public&#45;RT (expand) -->
<g id="edge8" class="edge">
<title>[root] aws_route_table_association.public (expand)&#45;&gt;[root] aws_route_table.Public&#45;RT (expand)</title>
<path fill="none" stroke="#000000" d="M774.5817,-287.8314C792.4293,-278.4516 814.3881,-266.9112 833.3908,-256.9244"/>
<polygon fill="#000000" stroke="#000000" points="835.2272,-259.9132 842.4509,-252.1628 831.9707,-253.7168 835.2272,-259.9132"/>
</g>
<!-- [root] aws_subnet.Public&#45;Subnet&#45;A (expand) -->
<g id="node10" class="node">
<title>[root] aws_subnet.Public&#45;Subnet&#45;A (expand)</title>
<polygon fill="none" stroke="#000000" points="733.0108,-252 561.0108,-252 561.0108,-216 733.0108,-216 733.0108,-252"/>
<text text-anchor="middle" x="647.0108" y="-230.3" font-family="Times,serif" font-size="14.00" fill="#000000">aws_subnet.Public&#45;Subnet&#45;A</text>
</g>
<!-- [root] aws_route_table_association.public (expand)&#45;&gt;[root] aws_subnet.Public&#45;Subnet&#45;A (expand) -->
<g id="edge9" class="edge">
<title>[root] aws_route_table_association.public (expand)&#45;&gt;[root] aws_subnet.Public&#45;Subnet&#45;A (expand)</title>
<path fill="none" stroke="#000000" d="M716.5429,-287.8314C704.9781,-278.8779 690.8704,-267.9558 678.3924,-258.2955"/>
<polygon fill="#000000" stroke="#000000" points="680.521,-255.5171 670.4711,-252.1628 676.2357,-261.0521 680.521,-255.5171"/>
</g>
<!-- [root] aws_security_group.allow_web (expand) -->
<g id="node8" class="node">
<title>[root] aws_security_group.allow_web (expand)</title>
<polygon fill="none" stroke="#000000" points="1139.5108,-396 954.5108,-396 954.5108,-360 1139.5108,-360 1139.5108,-396"/>
<text text-anchor="middle" x="1047.0108" y="-374.3" font-family="Times,serif" font-size="14.00" fill="#000000">aws_security_group.allow_web</text>
</g>
<!-- [root] aws_security_group.allow_web (expand)&#45;&gt;[root] aws_vpc.VPC&#45;A (expand) -->
<g id="edge10" class="edge">
<title>[root] aws_security_group.allow_web (expand)&#45;&gt;[root] aws_vpc.VPC&#45;A (expand)</title>
<path fill="none" stroke="#000000" d="M1057.5344,-359.8037C1081.0182,-316.5467 1131.5091,-206.5204 1077.0108,-144 1055.7684,-119.6307 853.8341,-101.9035 748.411,-94.2258"/>
<polygon fill="#000000" stroke="#000000" points="748.4359,-90.7186 738.2106,-93.4923 747.9338,-97.7006 748.4359,-90.7186"/>
</g>
<!-- [root] aws_subnet.Private&#45;Subnet&#45;A (expand)&#45;&gt;[root] aws_vpc.VPC&#45;A (expand) -->
<g id="edge11" class="edge">
<title>[root] aws_subnet.Private&#45;Subnet&#45;A (expand)&#45;&gt;[root] aws_vpc.VPC&#45;A (expand)</title>
<path fill="none" stroke="#000000" d="M381.1098,-145.5429C384.112,-145.0159 387.0857,-144.5001 390.0108,-144 490.1698,-126.877 518.9758,-130.4138 621.8351,-108.1199"/>
<polygon fill="#000000" stroke="#000000" points="622.6734,-111.5193 631.6894,-105.955 621.1713,-104.6823 622.6734,-111.5193"/>
</g>
<!-- [root] var.private_subnet_availability_zone -->
<g id="node13" class="node">
<title>[root] var.private_subnet_availability_zone</title>
<polygon fill="none" stroke="#000000" points="608.0108,-108 402.0108,-108 402.0108,-72 614.0108,-72 614.0108,-102 608.0108,-108"/>
<polyline fill="none" stroke="#000000" points="608.0108,-108 608.0108,-102 "/>
<polyline fill="none" stroke="#000000" points="614.0108,-102 608.0108,-102 "/>
<text text-anchor="middle" x="508.0108" y="-86.3" font-family="Times,serif" font-size="14.00" fill="#000000">var.private_subnet_availability_zone</text>
</g>
<!-- [root] aws_subnet.Private&#45;Subnet&#45;A (expand)&#45;&gt;[root] var.private_subnet_availability_zone -->
<g id="edge12" class="edge">
<title>[root] aws_subnet.Private&#45;Subnet&#45;A (expand)&#45;&gt;[root] var.private_subnet_availability_zone</title>
<path fill="none" stroke="#000000" d="M347.7358,-143.9243C377.118,-134.0387 413.6959,-121.7321 444.4865,-111.3726"/>
<polygon fill="#000000" stroke="#000000" points="445.9018,-114.5893 454.2637,-108.0831 443.6696,-107.9548 445.9018,-114.5893"/>
</g>
<!-- [root] var.private_subnet_cidr_block -->
<g id="node14" class="node">
<title>[root] var.private_subnet_cidr_block</title>
<polygon fill="none" stroke="#000000" points="377.5108,-108 204.5108,-108 204.5108,-72 383.5108,-72 383.5108,-102 377.5108,-108"/>
<polyline fill="none" stroke="#000000" points="377.5108,-108 377.5108,-102 "/>
<polyline fill="none" stroke="#000000" points="383.5108,-102 377.5108,-102 "/>
<text text-anchor="middle" x="294.0108" y="-86.3" font-family="Times,serif" font-size="14.00" fill="#000000">var.private_subnet_cidr_block</text>
</g>
<!-- [root] aws_subnet.Private&#45;Subnet&#45;A (expand)&#45;&gt;[root] var.private_subnet_cidr_block -->
<g id="edge13" class="edge">
<title>[root] aws_subnet.Private&#45;Subnet&#45;A (expand)&#45;&gt;[root] var.private_subnet_cidr_block</title>
<path fill="none" stroke="#000000" d="M294.0108,-143.8314C294.0108,-136.131 294.0108,-126.9743 294.0108,-118.4166"/>
<polygon fill="#000000" stroke="#000000" points="297.5109,-118.4132 294.0108,-108.4133 290.5109,-118.4133 297.5109,-118.4132"/>
</g>
<!-- [root] aws_subnet.Public&#45;Subnet&#45;A (expand)&#45;&gt;[root] aws_vpc.VPC&#45;A (expand) -->
<g id="edge14" class="edge">
<title>[root] aws_subnet.Public&#45;Subnet&#45;A (expand)&#45;&gt;[root] aws_vpc.VPC&#45;A (expand)</title>
<path fill="none" stroke="#000000" d="M634.7305,-215.8163C623.8018,-197.2019 611.1011,-167.7201 622.0108,-144 627.2778,-132.5483 636.3043,-122.6164 645.905,-114.5032"/>
<polygon fill="#000000" stroke="#000000" points="648.3293,-117.0498 654.0347,-108.1224 644.0073,-111.5433 648.3293,-117.0498"/>
</g>
<!-- [root] var.public_subnet_availability_zone -->
<g id="node15" class="node">
<title>[root] var.public_subnet_availability_zone</title>
<polygon fill="none" stroke="#000000" points="835.0108,-180 631.0108,-180 631.0108,-144 841.0108,-144 841.0108,-174 835.0108,-180"/>
<polyline fill="none" stroke="#000000" points="835.0108,-180 835.0108,-174 "/>
<polyline fill="none" stroke="#000000" points="841.0108,-174 835.0108,-174 "/>
<text text-anchor="middle" x="736.0108" y="-158.3" font-family="Times,serif" font-size="14.00" fill="#000000">var.public_subnet_availability_zone</text>
</g>
<!-- [root] aws_subnet.Public&#45;Subnet&#45;A (expand)&#45;&gt;[root] var.public_subnet_availability_zone -->
<g id="edge15" class="edge">
<title>[root] aws_subnet.Public&#45;Subnet&#45;A (expand)&#45;&gt;[root] var.public_subnet_availability_zone</title>
<path fill="none" stroke="#000000" d="M669.4692,-215.8314C680.4313,-206.9632 693.7807,-196.1637 705.6373,-186.5718"/>
<polygon fill="#000000" stroke="#000000" points="707.9863,-189.1734 713.5595,-180.1628 703.5837,-183.7313 707.9863,-189.1734"/>
</g>
<!-- [root] var.public_subnet_cidr_block -->
<g id="node16" class="node">
<title>[root] var.public_subnet_cidr_block</title>
<polygon fill="none" stroke="#000000" points="569.0108,-180 399.0108,-180 399.0108,-144 575.0108,-144 575.0108,-174 569.0108,-180"/>
<polyline fill="none" stroke="#000000" points="569.0108,-180 569.0108,-174 "/>
<polyline fill="none" stroke="#000000" points="575.0108,-174 569.0108,-174 "/>
<text text-anchor="middle" x="487.0108" y="-158.3" font-family="Times,serif" font-size="14.00" fill="#000000">var.public_subnet_cidr_block</text>
</g>
<!-- [root] aws_subnet.Public&#45;Subnet&#45;A (expand)&#45;&gt;[root] var.public_subnet_cidr_block -->
<g id="edge16" class="edge">
<title>[root] aws_subnet.Public&#45;Subnet&#45;A (expand)&#45;&gt;[root] var.public_subnet_cidr_block</title>
<path fill="none" stroke="#000000" d="M606.636,-215.8314C585.3321,-206.2446 559.0125,-194.4008 536.4897,-184.2655"/>
<polygon fill="#000000" stroke="#000000" points="537.6507,-180.95 527.0952,-180.038 534.7781,-187.3334 537.6507,-180.95"/>
</g>
<!-- [root] aws_vpc.VPC&#45;A (expand)&#45;&gt;[root] provider[&quot;registry.terraform.io/hashicorp/aws&quot;] -->
<g id="edge17" class="edge">
<title>[root] aws_vpc.VPC&#45;A (expand)&#45;&gt;[root] provider[&quot;registry.terraform.io/hashicorp/aws&quot;]</title>
<path fill="none" stroke="#000000" d="M631.6966,-74.0122C628.7682,-73.2934 625.859,-72.6165 623.0108,-72 535.8215,-53.1277 435.7072,-39.041 361.1641,-29.9953"/>
<polygon fill="#000000" stroke="#000000" points="361.1656,-26.4704 350.8195,-28.7524 360.3305,-33.4204 361.1656,-26.4704"/>
</g>
<!-- [root] var.vpc_name -->
<g id="node18" class="node">
<title>[root] var.vpc_name</title>
<polygon fill="none" stroke="#000000" points="725.0108,-36 639.0108,-36 639.0108,0 731.0108,0 731.0108,-30 725.0108,-36"/>
<polyline fill="none" stroke="#000000" points="725.0108,-36 725.0108,-30 "/>
<polyline fill="none" stroke="#000000" points="731.0108,-30 725.0108,-30 "/>
<text text-anchor="middle" x="685.0108" y="-14.3" font-family="Times,serif" font-size="14.00" fill="#000000">var.vpc_name</text>
</g>
<!-- [root] aws_vpc.VPC&#45;A (expand)&#45;&gt;[root] var.vpc_name -->
<g id="edge18" class="edge">
<title>[root] aws_vpc.VPC&#45;A (expand)&#45;&gt;[root] var.vpc_name</title>
<path fill="none" stroke="#000000" d="M685.0108,-71.8314C685.0108,-64.131 685.0108,-54.9743 685.0108,-46.4166"/>
<polygon fill="#000000" stroke="#000000" points="688.5109,-46.4132 685.0108,-36.4133 681.5109,-46.4133 688.5109,-46.4132"/>
</g>
<!-- [root] var.vpc_cidr_block -->
<g id="node17" class="node">
<title>[root] var.vpc_cidr_block</title>
<polygon fill="none" stroke="#000000" points="1098.0108,-468 984.0108,-468 984.0108,-432 1104.0108,-432 1104.0108,-462 1098.0108,-468"/>
<polyline fill="none" stroke="#000000" points="1098.0108,-468 1098.0108,-462 "/>
<polyline fill="none" stroke="#000000" points="1104.0108,-462 1098.0108,-462 "/>
<text text-anchor="middle" x="1044.0108" y="-446.3" font-family="Times,serif" font-size="14.00" fill="#000000">var.vpc_cidr_block</text>
</g>
<!-- [root] provider[&quot;registry.terraform.io/hashicorp/aws&quot;] (close) -->
<g id="node19" class="node">
<title>[root] provider[&quot;registry.terraform.io/hashicorp/aws&quot;] (close)</title>
<ellipse fill="none" stroke="#000000" cx="740.0108" cy="-450" rx="225.56" ry="18"/>
<text text-anchor="middle" x="740.0108" y="-446.3" font-family="Times,serif" font-size="14.00" fill="#000000">[root] provider[&quot;registry.terraform.io/hashicorp/aws&quot;] (close)</text>
</g>
<!-- [root] provider[&quot;registry.terraform.io/hashicorp/aws&quot;] (close)&#45;&gt;[root] aws_route_table_association.private (expand) -->
<g id="edge19" class="edge">
<title>[root] provider[&quot;registry.terraform.io/hashicorp/aws&quot;] (close)&#45;&gt;[root] aws_route_table_association.private (expand)</title>
<path fill="none" stroke="#000000" d="M692.3084,-432.3868C665.4635,-422.4749 631.734,-410.0209 603.3275,-399.5323"/>
<polygon fill="#000000" stroke="#000000" points="604.509,-396.2377 593.9157,-396.0572 602.0844,-402.8044 604.509,-396.2377"/>
</g>
<!-- [root] provider[&quot;registry.terraform.io/hashicorp/aws&quot;] (close)&#45;&gt;[root] aws_route_table_association.public (expand) -->
<g id="edge20" class="edge">
<title>[root] provider[&quot;registry.terraform.io/hashicorp/aws&quot;] (close)&#45;&gt;[root] aws_route_table_association.public (expand)</title>
<path fill="none" stroke="#000000" d="M740.0108,-431.7623C740.0108,-407.201 740.0108,-363.2474 740.0108,-334.3541"/>
<polygon fill="#000000" stroke="#000000" points="743.5109,-334.0896 740.0108,-324.0896 736.5109,-334.0897 743.5109,-334.0896"/>
</g>
<!-- [root] provider[&quot;registry.terraform.io/hashicorp/aws&quot;] (close)&#45;&gt;[root] aws_security_group.allow_web (expand) -->
<g id="edge21" class="edge">
<title>[root] provider[&quot;registry.terraform.io/hashicorp/aws&quot;] (close)&#45;&gt;[root] aws_security_group.allow_web (expand)</title>
<path fill="none" stroke="#000000" d="M812.7655,-432.937C857.0469,-422.5518 913.861,-409.2273 960.4466,-398.3017"/>
<polygon fill="#000000" stroke="#000000" points="961.2873,-401.6996 970.224,-396.0086 959.6889,-394.8845 961.2873,-401.6996"/>
</g>
<!-- [root] root -->
<g id="node20" class="node">
<title>[root] root</title>
<ellipse fill="none" stroke="#000000" cx="892.0108" cy="-522" rx="47.3916" ry="18"/>
<text text-anchor="middle" x="892.0108" y="-518.3" font-family="Times,serif" font-size="14.00" fill="#000000">[root] root</text>
</g>
<!-- [root] root&#45;&gt;[root] var.vpc_cidr_block -->
<g id="edge23" class="edge">
<title>[root] root&#45;&gt;[root] var.vpc_cidr_block</title>
<path fill="none" stroke="#000000" d="M921.6787,-507.9468C942.976,-497.8586 972.1228,-484.0522 996.6238,-472.4465"/>
<polygon fill="#000000" stroke="#000000" points="998.2215,-475.5625 1005.7606,-468.1185 995.2248,-469.2364 998.2215,-475.5625"/>
</g>
<!-- [root] root&#45;&gt;[root] provider[&quot;registry.terraform.io/hashicorp/aws&quot;] (close) -->
<g id="edge22" class="edge">
<title>[root] root&#45;&gt;[root] provider[&quot;registry.terraform.io/hashicorp/aws&quot;] (close)</title>
<path fill="none" stroke="#000000" d="M862.3428,-507.9468C840.8923,-497.786 811.479,-483.8533 786.8697,-472.1963"/>
<polygon fill="#000000" stroke="#000000" points="788.2354,-468.9705 777.6997,-467.8527 785.2388,-475.2967 788.2354,-468.9705"/>
</g>
</g>
</svg>
